<svg width="286" height="138" viewBox="0 0 286 138" fill="none" xmlns="http://www.w3.org/2000/svg">
<path d="M42 26L245 26.1383V34H42V26Z" fill="url(#paint0_linear_753_2)"/>
<path d="M42 52H245V60H42V52Z" fill="url(#paint1_linear_753_2)"/>
<path d="M42 104H245V112H42V104Z" fill="url(#paint2_linear_753_2)"/>
<path d="M34 26H42V112H34V26Z" fill="url(#paint3_linear_753_2)"/>
<path d="M245 26.1383L253 26V112H245V26.1383Z" fill="url(#paint4_linear_753_2)"/>
<path d="M229 46.8303L223 40.8077L224.727 39.0309L229 43.5L233.273 39.0535L235 40.8303L229 46.8303Z" fill="url(#paint5_linear_753_2)"/>
<path fill-rule="evenodd" clip-rule="evenodd" d="M229 46.8303L223 40.8077L224.727 39.0309L229 43.5L233.273 39.0535L235 40.8303L229 46.8303Z" fill="url(#paint6_linear_753_2)"/>
<path d="M229 46.8303L223 40.8077L224.727 39.0309L229 43.5L233.273 39.0535L235 40.8303L229 46.8303Z" fill="url(#paint7_linear_753_2)"/>
<path d="M52.5 41H122.5V45H52.5V41Z" fill="url(#paint8_linear_753_2)"/>
<path d="M125.5 41H158.5V45H125.5V41Z" fill="url(#paint9_linear_753_2)"/>
<path d="M42 78H245V86H42V78Z" fill="url(#paint10_linear_753_2)"/>
<path d="M229 72.8303L223 66.8077L224.727 65.0309L229 69.5L233.273 65.0535L235 66.8303L229 72.8303Z" fill="url(#paint11_linear_753_2)"/>
<path fill-rule="evenodd" clip-rule="evenodd" d="M229 72.8303L223 66.8077L224.727 65.0309L229 69.5L233.273 65.0535L235 66.8303L229 72.8303Z" fill="url(#paint12_linear_753_2)"/>
<path d="M229 72.8303L223 66.8077L224.727 65.0309L229 69.5L233.273 65.0535L235 66.8303L229 72.8303Z" fill="url(#paint13_linear_753_2)"/>
<path d="M52.5 67H100.5V71H52.5V67Z" fill="url(#paint14_linear_753_2)"/>
<path d="M107.5 67H141V71H107.5V67Z" fill="url(#paint15_linear_753_2)"/>
<path d="M229 97.7993L223 91.7767L224.727 90L229 94.4691L233.273 90.0226L235 91.7993L229 97.7993Z" fill="url(#paint16_linear_753_2)"/>
<path fill-rule="evenodd" clip-rule="evenodd" d="M229 97.7993L223 91.7767L224.727 90L229 94.4691L233.273 90.0226L235 91.7993L229 97.7993Z" fill="url(#paint17_linear_753_2)"/>
<path d="M229 97.7993L223 91.7767L224.727 90L229 94.4691L233.273 90.0226L235 91.7993L229 97.7993Z" fill="url(#paint18_linear_753_2)"/>
<path d="M52.5 93H64.5V97H52.5V93Z" fill="url(#paint19_linear_753_2)"/>
<path d="M68.5 93H94.5V97H68.5V93Z" fill="url(#paint20_linear_753_2)"/>
<path d="M98.5 93H104.5V97H98.5V93Z" fill="url(#paint21_linear_753_2)"/>
<path d="M108.5 93H116.5V97H108.5V93Z" fill="url(#paint22_linear_753_2)"/>
<defs>
<linearGradient id="paint0_linear_753_2" x1="34" y1="26" x2="48.9325" y2="138.973" gradientUnits="userSpaceOnUse">
<stop stop-color="#3B82F6"/>
<stop offset="1" stop-color="#2DD4BF"/>
</linearGradient>
<linearGradient id="paint1_linear_753_2" x1="34" y1="26" x2="48.9325" y2="138.973" gradientUnits="userSpaceOnUse">
<stop stop-color="#3B82F6"/>
<stop offset="1" stop-color="#2DD4BF"/>
</linearGradient>
<linearGradient id="paint2_linear_753_2" x1="34" y1="26" x2="48.9325" y2="138.973" gradientUnits="userSpaceOnUse">
<stop stop-color="#3B82F6"/>
<stop offset="1" stop-color="#2DD4BF"/>
</linearGradient>
<linearGradient id="paint3_linear_753_2" x1="34" y1="26" x2="48.9325" y2="138.973" gradientUnits="userSpaceOnUse">
<stop stop-color="#3B82F6"/>
<stop offset="1" stop-color="#2DD4BF"/>
</linearGradient>
<linearGradient id="paint4_linear_753_2" x1="34" y1="26" x2="48.9325" y2="138.973" gradientUnits="userSpaceOnUse">
<stop stop-color="#3B82F6"/>
<stop offset="1" stop-color="#2DD4BF"/>
</linearGradient>
<linearGradient id="paint5_linear_753_2" x1="34" y1="26" x2="48.9325" y2="138.973" gradientUnits="userSpaceOnUse">
<stop stop-color="#3B82F6"/>
<stop offset="1" stop-color="#2DD4BF"/>
</linearGradient>
<linearGradient id="paint6_linear_753_2" x1="34" y1="26" x2="48.9325" y2="138.973" gradientUnits="userSpaceOnUse">
<stop stop-color="#3B82F6"/>
<stop offset="1" stop-color="#2DD4BF"/>
</linearGradient>
<linearGradient id="paint7_linear_753_2" x1="34" y1="26" x2="48.9325" y2="138.973" gradientUnits="userSpaceOnUse">
<stop stop-color="#3B82F6"/>
<stop offset="1" stop-color="#2DD4BF"/>
</linearGradient>
<linearGradient id="paint8_linear_753_2" x1="34" y1="26" x2="48.9325" y2="138.973" gradientUnits="userSpaceOnUse">
<stop stop-color="#3B82F6"/>
<stop offset="1" stop-color="#2DD4BF"/>
</linearGradient>
<linearGradient id="paint9_linear_753_2" x1="34" y1="26" x2="48.9325" y2="138.973" gradientUnits="userSpaceOnUse">
<stop stop-color="#3B82F6"/>
<stop offset="1" stop-color="#2DD4BF"/>
</linearGradient>
<linearGradient id="paint10_linear_753_2" x1="34" y1="26" x2="48.9325" y2="138.973" gradientUnits="userSpaceOnUse">
<stop stop-color="#3B82F6"/>
<stop offset="1" stop-color="#2DD4BF"/>
</linearGradient>
<linearGradient id="paint11_linear_753_2" x1="34" y1="26" x2="48.9325" y2="138.973" gradientUnits="userSpaceOnUse">
<stop stop-color="#3B82F6"/>
<stop offset="1" stop-color="#2DD4BF"/>
</linearGradient>
<linearGradient id="paint12_linear_753_2" x1="34" y1="26" x2="48.9325" y2="138.973" gradientUnits="userSpaceOnUse">
<stop stop-color="#3B82F6"/>
<stop offset="1" stop-color="#2DD4BF"/>
</linearGradient>
<linearGradient id="paint13_linear_753_2" x1="34" y1="26" x2="48.9325" y2="138.973" gradientUnits="userSpaceOnUse">
<stop stop-color="#3B82F6"/>
<stop offset="1" stop-color="#2DD4BF"/>
</linearGradient>
<linearGradient id="paint14_linear_753_2" x1="34" y1="26" x2="48.9325" y2="138.973" gradientUnits="userSpaceOnUse">
<stop stop-color="#3B82F6"/>
<stop offset="1" stop-color="#2DD4BF"/>
</linearGradient>
<linearGradient id="paint15_linear_753_2" x1="34" y1="26" x2="48.9325" y2="138.973" gradientUnits="userSpaceOnUse">
<stop stop-color="#3B82F6"/>
<stop offset="1" stop-color="#2DD4BF"/>
</linearGradient>
<linearGradient id="paint16_linear_753_2" x1="34" y1="26" x2="48.9325" y2="138.973" gradientUnits="userSpaceOnUse">
<stop stop-color="#3B82F6"/>
<stop offset="1" stop-color="#2DD4BF"/>
</linearGradient>
<linearGradient id="paint17_linear_753_2" x1="34" y1="26" x2="48.9325" y2="138.973" gradientUnits="userSpaceOnUse">
<stop stop-color="#3B82F6"/>
<stop offset="1" stop-color="#2DD4BF"/>
</linearGradient>
<linearGradient id="paint18_linear_753_2" x1="34" y1="26" x2="48.9325" y2="138.973" gradientUnits="userSpaceOnUse">
<stop stop-color="#3B82F6"/>
<stop offset="1" stop-color="#2DD4BF"/>
</linearGradient>
<linearGradient id="paint19_linear_753_2" x1="34" y1="26" x2="48.9325" y2="138.973" gradientUnits="userSpaceOnUse">
<stop stop-color="#3B82F6"/>
<stop offset="1" stop-color="#2DD4BF"/>
</linearGradient>
<linearGradient id="paint20_linear_753_2" x1="34" y1="26" x2="48.9325" y2="138.973" gradientUnits="userSpaceOnUse">
<stop stop-color="#3B82F6"/>
<stop offset="1" stop-color="#2DD4BF"/>
</linearGradient>
<linearGradient id="paint21_linear_753_2" x1="34" y1="26" x2="48.9325" y2="138.973" gradientUnits="userSpaceOnUse">
<stop stop-color="#3B82F6"/>
<stop offset="1" stop-color="#2DD4BF"/>
</linearGradient>
<linearGradient id="paint22_linear_753_2" x1="34" y1="26" x2="48.9325" y2="138.973" gradientUnits="userSpaceOnUse">
<stop stop-color="#3B82F6"/>
<stop offset="1" stop-color="#2DD4BF"/>
</linearGradient>
</defs>
</svg>
