<svg width="286" height="138" viewBox="0 0 286 138" fill="none" xmlns="http://www.w3.org/2000/svg">
<path d="M104.17 70.1855H107.588C107.542 71.1751 107.275 72.0475 106.787 72.8027C106.299 73.5579 105.622 74.1471 104.756 74.5703C103.896 74.987 102.881 75.1953 101.709 75.1953C100.758 75.1953 99.9089 75.0358 99.1602 74.7168C98.418 74.3978 97.7865 73.9388 97.2656 73.3398C96.7513 72.7409 96.3574 72.015 96.084 71.1621C95.8171 70.3092 95.6836 69.349 95.6836 68.2812V67.5098C95.6836 66.4421 95.8236 65.4818 96.1035 64.6289C96.39 63.7695 96.7936 63.0404 97.3145 62.4414C97.8418 61.8359 98.4733 61.3737 99.209 61.0547C99.9447 60.7357 100.762 60.5762 101.66 60.5762C102.897 60.5762 103.942 60.7975 104.795 61.2402C105.648 61.6829 106.309 62.2917 106.777 63.0664C107.246 63.8346 107.523 64.7103 107.607 65.6934H104.189C104.176 65.1595 104.085 64.7135 103.916 64.3555C103.747 63.9909 103.48 63.7174 103.115 63.5352C102.751 63.3529 102.266 63.2617 101.66 63.2617C101.237 63.2617 100.869 63.3398 100.557 63.4961C100.244 63.6523 99.9837 63.8997 99.7754 64.2383C99.5671 64.5768 99.4108 65.0163 99.3066 65.5566C99.209 66.0905 99.1602 66.735 99.1602 67.4902V68.2812C99.1602 69.0365 99.2057 69.681 99.2969 70.2148C99.388 70.7487 99.5345 71.1849 99.7363 71.5234C99.9382 71.862 100.199 72.1126 100.518 72.2754C100.843 72.4316 101.24 72.5098 101.709 72.5098C102.23 72.5098 102.669 72.4284 103.027 72.2656C103.385 72.0964 103.662 71.8424 103.857 71.5039C104.053 71.1589 104.157 70.7194 104.17 70.1855ZM118.604 72.3633V75H111.416V72.3633H118.604ZM112.637 60.7812V75H109.209V60.7812H112.637ZM123.691 60.7812V75H120.273V60.7812H123.691ZM134.189 70.1855H137.607C137.562 71.1751 137.295 72.0475 136.807 72.8027C136.318 73.5579 135.641 74.1471 134.775 74.5703C133.916 74.987 132.9 75.1953 131.729 75.1953C130.778 75.1953 129.928 75.0358 129.18 74.7168C128.438 74.3978 127.806 73.9388 127.285 73.3398C126.771 72.7409 126.377 72.015 126.104 71.1621C125.837 70.3092 125.703 69.349 125.703 68.2812V67.5098C125.703 66.4421 125.843 65.4818 126.123 64.6289C126.41 63.7695 126.813 63.0404 127.334 62.4414C127.861 61.8359 128.493 61.3737 129.229 61.0547C129.964 60.7357 130.781 60.5762 131.68 60.5762C132.917 60.5762 133.962 60.7975 134.814 61.2402C135.667 61.6829 136.328 62.2917 136.797 63.0664C137.266 63.8346 137.542 64.7103 137.627 65.6934H134.209C134.196 65.1595 134.105 64.7135 133.936 64.3555C133.766 63.9909 133.499 63.7174 133.135 63.5352C132.77 63.3529 132.285 63.2617 131.68 63.2617C131.257 63.2617 130.889 63.3398 130.576 63.4961C130.264 63.6523 130.003 63.8997 129.795 64.2383C129.587 64.5768 129.43 65.0163 129.326 65.5566C129.229 66.0905 129.18 66.735 129.18 67.4902V68.2812C129.18 69.0365 129.225 69.681 129.316 70.2148C129.408 70.7487 129.554 71.1849 129.756 71.5234C129.958 71.862 130.218 72.1126 130.537 72.2754C130.863 72.4316 131.26 72.5098 131.729 72.5098C132.249 72.5098 132.689 72.4284 133.047 72.2656C133.405 72.0964 133.682 71.8424 133.877 71.5039C134.072 71.1589 134.176 70.7194 134.189 70.1855ZM142.656 60.7812V75H139.229V60.7812H142.656ZM151.143 60.7812L145.635 67.9883L142.412 71.5137L141.787 68.3691L143.848 65.2441L146.914 60.7812H151.143ZM147.09 75L143.418 68.5938L146.084 66.6309L151.143 75H147.09ZM163.682 60.7812H166.475L169.648 70.6738L172.822 60.7812H175.615L170.781 75H168.516L163.682 60.7812ZM161.982 60.7812H164.873L165.41 71.6797V75H161.982V60.7812ZM174.424 60.7812H177.324V75H173.887V71.6797L174.424 60.7812ZM189.307 72.3633V75H181.729V72.3633H189.307ZM182.949 60.7812V75H179.521V60.7812H182.949ZM188.33 66.4258V68.9746H181.729V66.4258H188.33ZM189.336 60.7812V63.4277H181.729V60.7812H189.336Z" fill="#3B82F6"/>
<rect x="73" y="47" width="139" height="43" stroke="url(#paint0_linear_25_33)" stroke-width="8"/>
<defs>
<linearGradient id="paint0_linear_25_33" x1="69" y1="43" x2="76.861" y2="110.261" gradientUnits="userSpaceOnUse">
<stop stop-color="#3B82F6"/>
<stop offset="1" stop-color="#2DD4BF"/>
</linearGradient>
</defs>
</svg>
