<svg width="286" height="138" viewBox="0 0 286 138" fill="none" xmlns="http://www.w3.org/2000/svg">
<rect x="69" y="46" width="147" height="46" stroke="url(#paint0_linear_25_33)" stroke-width="8"/>
<path d="M104.17 71.1855H107.588C107.542 72.1751 107.275 73.0475 106.787 73.8027C106.299 74.5579 105.622 75.1471 104.756 75.5703C103.896 75.987 102.881 76.1953 101.709 76.1953C100.758 76.1953 99.9089 76.0358 99.1602 75.7168C98.418 75.3978 97.7865 74.9388 97.2656 74.3398C96.7513 73.7409 96.3574 73.015 96.084 72.1621C95.8171 71.3092 95.6836 70.349 95.6836 69.2812V68.5098C95.6836 67.4421 95.8236 66.4818 96.1035 65.6289C96.39 64.7695 96.7936 64.0404 97.3145 63.4414C97.8418 62.8359 98.4733 62.3737 99.209 62.0547C99.9447 61.7357 100.762 61.5762 101.66 61.5762C102.897 61.5762 103.942 61.7975 104.795 62.2402C105.648 62.6829 106.309 63.2917 106.777 64.0664C107.246 64.8346 107.523 65.7103 107.607 66.6934H104.189C104.176 66.1595 104.085 65.7135 103.916 65.3555C103.747 64.9909 103.48 64.7174 103.115 64.5352C102.751 64.3529 102.266 64.2617 101.66 64.2617C101.237 64.2617 100.869 64.3398 100.557 64.4961C100.244 64.6523 99.9837 64.8997 99.7754 65.2383C99.5671 65.5768 99.4108 66.0163 99.3066 66.5566C99.209 67.0905 99.1602 67.735 99.1602 68.4902V69.2812C99.1602 70.0365 99.2057 70.681 99.2969 71.2148C99.388 71.7487 99.5345 72.1849 99.7363 72.5234C99.9382 72.862 100.199 73.1126 100.518 73.2754C100.843 73.4316 101.24 73.5098 101.709 73.5098C102.23 73.5098 102.669 73.4284 103.027 73.2656C103.385 73.0964 103.662 72.8424 103.857 72.5039C104.053 72.1589 104.157 71.7194 104.17 71.1855ZM118.604 73.3633V76H111.416V73.3633H118.604ZM112.637 61.7812V76H109.209V61.7812H112.637ZM123.691 61.7812V76H120.273V61.7812H123.691ZM134.189 71.1855H137.607C137.562 72.1751 137.295 73.0475 136.807 73.8027C136.318 74.5579 135.641 75.1471 134.775 75.5703C133.916 75.987 132.9 76.1953 131.729 76.1953C130.778 76.1953 129.928 76.0358 129.18 75.7168C128.438 75.3978 127.806 74.9388 127.285 74.3398C126.771 73.7409 126.377 73.015 126.104 72.1621C125.837 71.3092 125.703 70.349 125.703 69.2812V68.5098C125.703 67.4421 125.843 66.4818 126.123 65.6289C126.41 64.7695 126.813 64.0404 127.334 63.4414C127.861 62.8359 128.493 62.3737 129.229 62.0547C129.964 61.7357 130.781 61.5762 131.68 61.5762C132.917 61.5762 133.962 61.7975 134.814 62.2402C135.667 62.6829 136.328 63.2917 136.797 64.0664C137.266 64.8346 137.542 65.7103 137.627 66.6934H134.209C134.196 66.1595 134.105 65.7135 133.936 65.3555C133.766 64.9909 133.499 64.7174 133.135 64.5352C132.77 64.3529 132.285 64.2617 131.68 64.2617C131.257 64.2617 130.889 64.3398 130.576 64.4961C130.264 64.6523 130.003 64.8997 129.795 65.2383C129.587 65.5768 129.43 66.0163 129.326 66.5566C129.229 67.0905 129.18 67.735 129.18 68.4902V69.2812C129.18 70.0365 129.225 70.681 129.316 71.2148C129.408 71.7487 129.554 72.1849 129.756 72.5234C129.958 72.862 130.218 73.1126 130.537 73.2754C130.863 73.4316 131.26 73.5098 131.729 73.5098C132.249 73.5098 132.689 73.4284 133.047 73.2656C133.405 73.0964 133.682 72.8424 133.877 72.5039C134.072 72.1589 134.176 71.7194 134.189 71.1855ZM142.656 61.7812V76H139.229V61.7812H142.656ZM151.143 61.7812L145.635 68.9883L142.412 72.5137L141.787 69.3691L143.848 66.2441L146.914 61.7812H151.143ZM147.09 76L143.418 69.5938L146.084 67.6309L151.143 76H147.09ZM163.682 61.7812H166.475L169.648 71.6738L172.822 61.7812H175.615L170.781 76H168.516L163.682 61.7812ZM161.982 61.7812H164.873L165.41 72.6797V76H161.982V61.7812ZM174.424 61.7812H177.324V76H173.887V72.6797L174.424 61.7812ZM189.307 73.3633V76H181.729V73.3633H189.307ZM182.949 61.7812V76H179.521V61.7812H182.949ZM188.33 67.4258V69.9746H181.729V67.4258H188.33ZM189.336 61.7812V64.4277H181.729V61.7812H189.336Z" fill="#3B82F6"/>
<defs>
<linearGradient id="paint0_linear_25_33" x1="69" y1="46" x2="75.4108" y2="106.819" gradientUnits="userSpaceOnUse">
<stop offset="0" stop-color="#3B82F6"/>
<stop offset="1" stop-color="#2DD4BF"/>
</linearGradient>
</defs>
</svg>
