<svg width="286" height="138" viewBox="0 0 286 138" fill="none" xmlns="http://www.w3.org/2000/svg">
<path d="M77 65L73 69L83.5 80L103 62L99 58L83.5 72L77 65Z" fill="url(#paint0_linear_602_2)"/>
<path fill-rule="evenodd" clip-rule="evenodd" d="M115 42H61V96H115V42ZM107 50H69V88H107V50ZM73 69L77 65L83.5 72L99 58L103 62L83.5 80L73 69Z" fill="url(#paint1_linear_602_2)"/>
<path d="M136.17 71.1855H139.588C139.542 72.1751 139.275 73.0475 138.787 73.8027C138.299 74.5579 137.622 75.1471 136.756 75.5703C135.896 75.987 134.881 76.1953 133.709 76.1953C132.758 76.1953 131.909 76.0358 131.16 75.7168C130.418 75.3978 129.786 74.9388 129.266 74.3398C128.751 73.7409 128.357 73.015 128.084 72.1621C127.817 71.3092 127.684 70.349 127.684 69.2812V68.5098C127.684 67.4421 127.824 66.4818 128.104 65.6289C128.39 64.7695 128.794 64.0404 129.314 63.4414C129.842 62.8359 130.473 62.3737 131.209 62.0547C131.945 61.7357 132.762 61.5762 133.66 61.5762C134.897 61.5762 135.942 61.7975 136.795 62.2402C137.648 62.6829 138.309 63.2917 138.777 64.0664C139.246 64.8346 139.523 65.7103 139.607 66.6934H136.189C136.176 66.1595 136.085 65.7135 135.916 65.3555C135.747 64.9909 135.48 64.7174 135.115 64.5352C134.751 64.3529 134.266 64.2617 133.66 64.2617C133.237 64.2617 132.869 64.3398 132.557 64.4961C132.244 64.6523 131.984 64.8997 131.775 65.2383C131.567 65.5768 131.411 66.0163 131.307 66.5566C131.209 67.0905 131.16 67.735 131.16 68.4902V69.2812C131.16 70.0365 131.206 70.681 131.297 71.2148C131.388 71.7487 131.535 72.1849 131.736 72.5234C131.938 72.862 132.199 73.1126 132.518 73.2754C132.843 73.4316 133.24 73.5098 133.709 73.5098C134.23 73.5098 134.669 73.4284 135.027 73.2656C135.385 73.0964 135.662 72.8424 135.857 72.5039C136.053 72.1589 136.157 71.7194 136.17 71.1855ZM150.789 67.4258V70.0625H143.494V67.4258H150.789ZM144.637 61.7812V76H141.209V61.7812H144.637ZM153.094 61.7812V76H149.676V61.7812H153.094ZM165.057 73.3633V76H157.479V73.3633H165.057ZM158.699 61.7812V76H155.271V61.7812H158.699ZM164.08 67.4258V69.9746H157.479V67.4258H164.08ZM165.086 61.7812V64.4277H157.479V61.7812H165.086ZM174.549 71.1855H177.967C177.921 72.1751 177.654 73.0475 177.166 73.8027C176.678 74.5579 176.001 75.1471 175.135 75.5703C174.275 75.987 173.26 76.1953 172.088 76.1953C171.137 76.1953 170.288 76.0358 169.539 75.7168C168.797 75.3978 168.165 74.9388 167.645 74.3398C167.13 73.7409 166.736 73.015 166.463 72.1621C166.196 71.3092 166.062 70.349 166.062 69.2812V68.5098C166.062 67.4421 166.202 66.4818 166.482 65.6289C166.769 64.7695 167.173 64.0404 167.693 63.4414C168.221 62.8359 168.852 62.3737 169.588 62.0547C170.324 61.7357 171.141 61.5762 172.039 61.5762C173.276 61.5762 174.321 61.7975 175.174 62.2402C176.027 62.6829 176.688 63.2917 177.156 64.0664C177.625 64.8346 177.902 65.7103 177.986 66.6934H174.568C174.555 66.1595 174.464 65.7135 174.295 65.3555C174.126 64.9909 173.859 64.7174 173.494 64.5352C173.13 64.3529 172.645 64.2617 172.039 64.2617C171.616 64.2617 171.248 64.3398 170.936 64.4961C170.623 64.6523 170.363 64.8997 170.154 65.2383C169.946 65.5768 169.79 66.0163 169.686 66.5566C169.588 67.0905 169.539 67.735 169.539 68.4902V69.2812C169.539 70.0365 169.585 70.681 169.676 71.2148C169.767 71.7487 169.913 72.1849 170.115 72.5234C170.317 72.862 170.577 73.1126 170.896 73.2754C171.222 73.4316 171.619 73.5098 172.088 73.5098C172.609 73.5098 173.048 73.4284 173.406 73.2656C173.764 73.0964 174.041 72.8424 174.236 72.5039C174.432 72.1589 174.536 71.7194 174.549 71.1855ZM183.016 61.7812V76H179.588V61.7812H183.016ZM191.502 61.7812L185.994 68.9883L182.771 72.5137L182.146 69.3691L184.207 66.2441L187.273 61.7812H191.502ZM187.449 76L183.777 69.5938L186.443 67.6309L191.502 76H187.449ZM199.061 61.7812H201.854L205.027 71.6738L208.201 61.7812H210.994L206.16 76H203.895L199.061 61.7812ZM197.361 61.7812H200.252L200.789 72.6797V76H197.361V61.7812ZM209.803 61.7812H212.703V76H209.266V72.6797L209.803 61.7812ZM224.686 73.3633V76H217.107V73.3633H224.686ZM218.328 61.7812V76H214.9V61.7812H218.328ZM223.709 67.4258V69.9746H217.107V67.4258H223.709ZM224.715 61.7812V64.4277H217.107V61.7812H224.715Z" fill="#3B82F6"/>
<defs>
<linearGradient id="paint0_linear_602_2" x1="61" y1="42" x2="82.8323" y2="106.832" gradientUnits="userSpaceOnUse">
<stop offset="0" stop-color="#3B82F6"/>
<stop offset="1" stop-color="#2DD4BF"/>
</linearGradient>
<linearGradient id="paint1_linear_602_2" x1="61" y1="42" x2="82.8323" y2="106.832" gradientUnits="userSpaceOnUse">
<stop offset="0" stop-color="#3B82F6"/>
<stop offset="1" stop-color="#2DD4BF"/>
</linearGradient>
</defs>
</svg>
