<svg width="286" height="138" viewBox="0 0 286 138" fill="none" xmlns="http://www.w3.org/2000/svg">
<path d="M39 19H248V24H39V19Z" fill="url(#paint0_linear_629_2)"/>
<path d="M39 37H248V42H39V37Z" fill="url(#paint1_linear_629_2)"/>
<path d="M39 114H248V119H39V114Z" fill="url(#paint2_linear_629_2)"/>
<path d="M34 19H39V119H34V19Z" fill="url(#paint3_linear_629_2)"/>
<path d="M248 19H253V119H248V19Z" fill="url(#paint4_linear_629_2)"/>
<path d="M236.5 35L231 29.2768L232.227 28L236.5 32.4691L240.773 28.0226L242 29.2993L236.5 35Z" fill="url(#paint5_linear_629_2)"/>
<path fill-rule="evenodd" clip-rule="evenodd" d="M236.5 35L231 29.2768L232.227 28L236.5 32.4691L240.773 28.0226L242 29.2993L236.5 35Z" fill="url(#paint6_linear_629_2)"/>
<path d="M236.5 35L231 29.2768L232.227 28L236.5 32.4691L240.773 28.0226L242 29.2993L236.5 35Z" fill="url(#paint7_linear_629_2)"/>
<path d="M44 29H114V32H44V29Z" fill="url(#paint8_linear_629_2)"/>
<path d="M118 29H151V32H118V29Z" fill="url(#paint9_linear_629_2)"/>
<path d="M44 54H56V57H44V54Z" fill="url(#paint10_linear_629_2)"/>
<path d="M60 54H86V57H60V54Z" fill="url(#paint11_linear_629_2)"/>
<path d="M90 54H96V57H90V54Z" fill="url(#paint12_linear_629_2)"/>
<path d="M100 54H108V57H100V54Z" fill="url(#paint13_linear_629_2)"/>
<path d="M112 54H129V57H112V54Z" fill="url(#paint14_linear_629_2)"/>
<path d="M133 54H159V57H133V54Z" fill="url(#paint15_linear_629_2)"/>
<path d="M163 54H189V57H163V54Z" fill="url(#paint16_linear_629_2)"/>
<path d="M44 67H95V70H44V67Z" fill="url(#paint17_linear_629_2)"/>
<path d="M44 80H78V83H44V80Z" fill="url(#paint18_linear_629_2)"/>
<path d="M44 93H47V96H44V93Z" fill="url(#paint19_linear_629_2)"/>
<path d="M49 93H52V96H49V93Z" fill="url(#paint20_linear_629_2)"/>
<path d="M82 80H113V83H82V80Z" fill="url(#paint21_linear_629_2)"/>
<path d="M117 80H125V83H117V80Z" fill="url(#paint22_linear_629_2)"/>
<path d="M129 80H152V83H129V80Z" fill="url(#paint23_linear_629_2)"/>
<path d="M54 93H57V96H54V93Z" fill="url(#paint24_linear_629_2)"/>
<path d="M100 67H199V70H100V67Z" fill="url(#paint25_linear_629_2)"/>
<defs>
<linearGradient id="paint0_linear_629_2" x1="34" y1="19" x2="54.0619" y2="149.567" gradientUnits="userSpaceOnUse">
<stop stop-color="#3B82F6"/>
<stop offset="1" stop-color="#2DD4BF"/>
</linearGradient>
<linearGradient id="paint1_linear_629_2" x1="34" y1="19" x2="54.0619" y2="149.567" gradientUnits="userSpaceOnUse">
<stop stop-color="#3B82F6"/>
<stop offset="1" stop-color="#2DD4BF"/>
</linearGradient>
<linearGradient id="paint2_linear_629_2" x1="34" y1="19" x2="54.0619" y2="149.567" gradientUnits="userSpaceOnUse">
<stop stop-color="#3B82F6"/>
<stop offset="1" stop-color="#2DD4BF"/>
</linearGradient>
<linearGradient id="paint3_linear_629_2" x1="34" y1="19" x2="54.0619" y2="149.567" gradientUnits="userSpaceOnUse">
<stop stop-color="#3B82F6"/>
<stop offset="1" stop-color="#2DD4BF"/>
</linearGradient>
<linearGradient id="paint4_linear_629_2" x1="34" y1="19" x2="54.0619" y2="149.567" gradientUnits="userSpaceOnUse">
<stop stop-color="#3B82F6"/>
<stop offset="1" stop-color="#2DD4BF"/>
</linearGradient>
<linearGradient id="paint5_linear_629_2" x1="34" y1="19" x2="54.0619" y2="149.567" gradientUnits="userSpaceOnUse">
<stop stop-color="#3B82F6"/>
<stop offset="1" stop-color="#2DD4BF"/>
</linearGradient>
<linearGradient id="paint6_linear_629_2" x1="34" y1="19" x2="54.0619" y2="149.567" gradientUnits="userSpaceOnUse">
<stop stop-color="#3B82F6"/>
<stop offset="1" stop-color="#2DD4BF"/>
</linearGradient>
<linearGradient id="paint7_linear_629_2" x1="34" y1="19" x2="54.0619" y2="149.567" gradientUnits="userSpaceOnUse">
<stop stop-color="#3B82F6"/>
<stop offset="1" stop-color="#2DD4BF"/>
</linearGradient>
<linearGradient id="paint8_linear_629_2" x1="34" y1="19" x2="54.0619" y2="149.567" gradientUnits="userSpaceOnUse">
<stop stop-color="#3B82F6"/>
<stop offset="1" stop-color="#2DD4BF"/>
</linearGradient>
<linearGradient id="paint9_linear_629_2" x1="34" y1="19" x2="54.0619" y2="149.567" gradientUnits="userSpaceOnUse">
<stop stop-color="#3B82F6"/>
<stop offset="1" stop-color="#2DD4BF"/>
</linearGradient>
<linearGradient id="paint10_linear_629_2" x1="34" y1="19" x2="54.0619" y2="149.567" gradientUnits="userSpaceOnUse">
<stop stop-color="#3B82F6"/>
<stop offset="1" stop-color="#2DD4BF"/>
</linearGradient>
<linearGradient id="paint11_linear_629_2" x1="34" y1="19" x2="54.0619" y2="149.567" gradientUnits="userSpaceOnUse">
<stop stop-color="#3B82F6"/>
<stop offset="1" stop-color="#2DD4BF"/>
</linearGradient>
<linearGradient id="paint12_linear_629_2" x1="34" y1="19" x2="54.0619" y2="149.567" gradientUnits="userSpaceOnUse">
<stop stop-color="#3B82F6"/>
<stop offset="1" stop-color="#2DD4BF"/>
</linearGradient>
<linearGradient id="paint13_linear_629_2" x1="34" y1="19" x2="54.0619" y2="149.567" gradientUnits="userSpaceOnUse">
<stop stop-color="#3B82F6"/>
<stop offset="1" stop-color="#2DD4BF"/>
</linearGradient>
<linearGradient id="paint14_linear_629_2" x1="34" y1="19" x2="54.0619" y2="149.567" gradientUnits="userSpaceOnUse">
<stop stop-color="#3B82F6"/>
<stop offset="1" stop-color="#2DD4BF"/>
</linearGradient>
<linearGradient id="paint15_linear_629_2" x1="34" y1="19" x2="54.0619" y2="149.567" gradientUnits="userSpaceOnUse">
<stop stop-color="#3B82F6"/>
<stop offset="1" stop-color="#2DD4BF"/>
</linearGradient>
<linearGradient id="paint16_linear_629_2" x1="34" y1="19" x2="54.0619" y2="149.567" gradientUnits="userSpaceOnUse">
<stop stop-color="#3B82F6"/>
<stop offset="1" stop-color="#2DD4BF"/>
</linearGradient>
<linearGradient id="paint17_linear_629_2" x1="34" y1="19" x2="54.0619" y2="149.567" gradientUnits="userSpaceOnUse">
<stop stop-color="#3B82F6"/>
<stop offset="1" stop-color="#2DD4BF"/>
</linearGradient>
<linearGradient id="paint18_linear_629_2" x1="34" y1="19" x2="54.0619" y2="149.567" gradientUnits="userSpaceOnUse">
<stop stop-color="#3B82F6"/>
<stop offset="1" stop-color="#2DD4BF"/>
</linearGradient>
<linearGradient id="paint19_linear_629_2" x1="34" y1="19" x2="54.0619" y2="149.567" gradientUnits="userSpaceOnUse">
<stop stop-color="#3B82F6"/>
<stop offset="1" stop-color="#2DD4BF"/>
</linearGradient>
<linearGradient id="paint20_linear_629_2" x1="34" y1="19" x2="54.0619" y2="149.567" gradientUnits="userSpaceOnUse">
<stop stop-color="#3B82F6"/>
<stop offset="1" stop-color="#2DD4BF"/>
</linearGradient>
<linearGradient id="paint21_linear_629_2" x1="34" y1="19" x2="54.0619" y2="149.567" gradientUnits="userSpaceOnUse">
<stop stop-color="#3B82F6"/>
<stop offset="1" stop-color="#2DD4BF"/>
</linearGradient>
<linearGradient id="paint22_linear_629_2" x1="34" y1="19" x2="54.0619" y2="149.567" gradientUnits="userSpaceOnUse">
<stop stop-color="#3B82F6"/>
<stop offset="1" stop-color="#2DD4BF"/>
</linearGradient>
<linearGradient id="paint23_linear_629_2" x1="34" y1="19" x2="54.0619" y2="149.567" gradientUnits="userSpaceOnUse">
<stop stop-color="#3B82F6"/>
<stop offset="1" stop-color="#2DD4BF"/>
</linearGradient>
<linearGradient id="paint24_linear_629_2" x1="34" y1="19" x2="54.0619" y2="149.567" gradientUnits="userSpaceOnUse">
<stop stop-color="#3B82F6"/>
<stop offset="1" stop-color="#2DD4BF"/>
</linearGradient>
<linearGradient id="paint25_linear_629_2" x1="34" y1="19" x2="54.0619" y2="149.567" gradientUnits="userSpaceOnUse">
<stop stop-color="#3B82F6"/>
<stop offset="1" stop-color="#2DD4BF"/>
</linearGradient>
</defs>
</svg>
