<svg width="286" height="138" viewBox="0 0 286 138" fill="none" xmlns="http://www.w3.org/2000/svg">
<path d="M143.475 90.6917L145.533 83.8833C149.122 83.3028 152.117 81.6224 154.519 78.8422C156.92 76.0621 158.121 72.7744 158.121 68.9792C158.121 64.7708 156.651 61.2021 153.711 58.2729C150.771 55.3437 147.212 53.8792 143.034 53.8792C139.211 53.8792 135.901 55.0799 133.104 57.4812C130.307 59.8826 128.644 62.9042 128.117 66.5458L121.308 68.6833C121.414 62.6667 123.565 57.5868 127.76 53.4437C131.956 49.3007 137.047 47.2292 143.031 47.2292C149.061 47.2292 154.192 49.3449 158.423 53.5765C162.655 57.808 164.771 62.9388 164.771 68.9687C164.771 74.9535 162.713 80.0437 158.596 84.2396C154.479 88.4354 149.439 90.5861 143.475 90.6917ZM115.133 104.071L107.929 96.8667L121.942 82.8975L109.829 78.8958L143 69L133.104 102.171L129.102 90.0583L115.133 104.071Z" fill="url(#paint0_linear_732_17)"/>
<defs>
<linearGradient id="paint0_linear_732_17" x1="107.929" y1="47.2292" x2="130.877" y2="115.469" gradientUnits="userSpaceOnUse">
<stop stop-color="#3B82F6"/>
<stop offset="1" stop-color="#2DD4BF"/>
</linearGradient>
</defs>
</svg>
