<svg width="286" height="138" viewBox="0 0 286 138" fill="none" xmlns="http://www.w3.org/2000/svg">
<path d="M124.981 67.7367L142.157 40L159.333 67.7367H124.981ZM158.079 97.8065C154.449 97.8065 151.396 96.5605 148.919 94.0687C146.442 91.5769 145.204 88.5202 145.204 84.8988C145.204 81.2773 146.44 78.2136 148.911 75.7078C151.383 73.202 154.44 71.9491 158.083 71.9491C161.725 71.9491 164.789 73.1994 167.273 75.7001C169.758 78.2009 171 81.2684 171 84.9025C171 88.5367 169.754 91.5959 167.262 94.0801C164.77 96.5643 161.709 97.8065 158.079 97.8065ZM115 96.1863V73.1804H138.009V96.1863H115ZM158.107 91.6499C160.005 91.6499 161.602 91 162.898 89.7003C164.194 88.4005 164.843 86.802 164.843 84.9047C164.843 83.0074 164.193 81.3999 162.893 80.0822C161.593 78.7645 159.994 78.1056 158.096 78.1056C156.199 78.1056 154.591 78.7663 153.273 80.0877C151.955 81.409 151.296 83.0183 151.296 84.9157C151.296 86.813 151.957 88.4097 153.279 89.7058C154.6 91.0019 156.21 91.6499 158.107 91.6499ZM121.157 90.0298H131.917V79.3369H121.157V90.0298ZM136 61.5802H148.315L142.157 51.5354L136 61.5802Z" fill="url(#paint0_linear_732_2)"/>
<defs>
<linearGradient id="paint0_linear_732_2" x1="115" y1="40" x2="138.95" y2="108.941" gradientUnits="userSpaceOnUse">
<stop stop-color="#3B82F6"/>
<stop offset="1" stop-color="#2DD4BF"/>
</linearGradient>
</defs>
</svg>
