<svg width="286" height="138" viewBox="0 0 286 138" fill="none" xmlns="http://www.w3.org/2000/svg">
<rect x="69" y="46" width="147" height="46" stroke="url(#paint0_linear_611_136)" stroke-width="8"/>
<path d="M86.9688 61.7812V76H83.541V61.7812H86.9688ZM91.2461 61.7812V64.4277H79.3613V61.7812H91.2461ZM95.4355 61.7812L98.0527 67.9531L100.68 61.7812H104.371L99.8008 70.8926V76H96.3145V70.8926L91.7344 61.7812H95.4355ZM111.09 71.1758H107.555V68.5293H111.09C111.572 68.5293 111.962 68.4479 112.262 68.2852C112.561 68.1224 112.779 67.8978 112.916 67.6113C113.059 67.3184 113.131 66.9896 113.131 66.625C113.131 66.2344 113.059 65.873 112.916 65.541C112.779 65.209 112.561 64.9421 112.262 64.7402C111.962 64.5319 111.572 64.4277 111.09 64.4277H108.844V76H105.416V61.7812H111.09C112.229 61.7812 113.209 61.9896 114.029 62.4062C114.856 62.8229 115.491 63.3958 115.934 64.125C116.376 64.8477 116.598 65.6745 116.598 66.6055C116.598 67.5234 116.376 68.3242 115.934 69.0078C115.491 69.6914 114.856 70.2253 114.029 70.6094C113.209 70.987 112.229 71.1758 111.09 71.1758ZM128.229 73.3633V76H120.65V73.3633H128.229ZM121.871 61.7812V76H118.443V61.7812H121.871ZM127.252 67.4258V69.9746H120.65V67.4258H127.252ZM128.258 61.7812V64.4277H120.65V61.7812H128.258Z" fill="#3B82F6"/>
<line x1="134.5" y1="85" x2="134.5" y2="54" stroke="url(#paint1_linear_611_136)" stroke-width="3"/>
<defs>
<linearGradient id="paint0_linear_611_136" x1="69" y1="46" x2="75.4108" y2="106.819" gradientUnits="userSpaceOnUse">
<stop offset="0" stop-color="#3B82F6"/>
<stop offset="1" stop-color="#2DD4BF"/>
</linearGradient>
<linearGradient id="paint1_linear_611_136" x1="136" y1="85" x2="137.402" y2="84.9818" gradientUnits="userSpaceOnUse">
<stop offset="0" stop-color="#3B82F6"/>
<stop offset="1" stop-color="#2DD4BF"/>
</linearGradient>
</defs>
</svg>
