<svg width="198" height="55" viewBox="0 0 198 55" fill="none" xmlns="http://www.w3.org/2000/svg">
<path d="M76.3936 41V16.749H84.2236C86.9821 16.749 89.0479 17.2314 90.4209 18.1963C91.8063 19.1611 92.499 20.6208 92.499 22.5752C92.499 23.1813 92.4248 23.7751 92.2764 24.3564C92.1403 24.9255 91.9238 25.4512 91.627 25.9336C91.3301 26.416 90.959 26.8428 90.5137 27.2139C90.0684 27.585 89.5426 27.8757 88.9365 28.0859C89.5426 28.1849 90.1178 28.3828 90.6621 28.6797C91.2188 28.9642 91.7012 29.3415 92.1094 29.8115C92.5299 30.2692 92.8577 30.8135 93.0928 31.4443C93.3402 32.0752 93.4639 32.7803 93.4639 33.5596C93.4639 36.0335 92.6351 37.8952 90.9775 39.1445C89.32 40.3815 86.9264 41 83.7969 41H76.3936ZM87.749 23.373C87.749 22.9154 87.6748 22.501 87.5264 22.1299C87.3779 21.7588 87.1367 21.4434 86.8027 21.1836C86.4811 20.9238 86.0605 20.7259 85.541 20.5898C85.0339 20.4414 84.4154 20.3672 83.6855 20.3672H80.9209V26.7871H83.6855C84.4277 26.7871 85.0524 26.7005 85.5596 26.5273C86.0791 26.3418 86.4997 26.0944 86.8213 25.7852C87.1553 25.4635 87.3903 25.0986 87.5264 24.6904C87.6748 24.2822 87.749 23.8431 87.749 23.373ZM84.1123 37.2705C84.8421 37.2705 85.4792 37.1777 86.0234 36.9922C86.5801 36.8066 87.0439 36.5531 87.415 36.2314C87.7861 35.8975 88.0645 35.5078 88.25 35.0625C88.4479 34.6172 88.5469 34.141 88.5469 33.6338C88.5469 32.5824 88.151 31.7598 87.3594 31.166C86.5801 30.5723 85.3802 30.2754 83.7598 30.2754H80.9209V37.2705H84.1123ZM103.558 18.3076H98.2324V14.7822H108.196V37.4746H113.633V41H97.583V37.4746H103.558V18.3076ZM129.46 16.9902C129.46 17.3984 129.386 17.7819 129.237 18.1406C129.089 18.4993 128.879 18.8148 128.606 19.0869C128.347 19.3467 128.037 19.557 127.679 19.7178C127.32 19.8662 126.93 19.9404 126.51 19.9404C126.089 19.9404 125.693 19.8662 125.322 19.7178C124.964 19.557 124.648 19.3467 124.376 19.0869C124.116 18.8148 123.912 18.4993 123.764 18.1406C123.615 17.7819 123.541 17.3984 123.541 16.9902C123.541 16.582 123.615 16.1986 123.764 15.8398C123.912 15.4811 124.116 15.1657 124.376 14.8936C124.648 14.6214 124.964 14.4111 125.322 14.2627C125.693 14.1019 126.089 14.0215 126.51 14.0215C126.93 14.0215 127.32 14.1019 127.679 14.2627C128.037 14.4111 128.347 14.6214 128.606 14.8936C128.879 15.1657 129.089 15.4811 129.237 15.8398C129.386 16.1986 129.46 16.582 129.46 16.9902ZM124.45 25.6738H119.125V22.1484H129.089V37.4746H134.525V41H118.476V37.4746H124.45V25.6738ZM139.461 41V37.8457L148.683 26.0264H139.684V22.1484H154.657V25.3398L145.64 37.0107H154.806V41H139.461ZM160.354 41V37.8457L169.575 26.0264H160.576V22.1484H175.55V25.3398L166.532 37.0107H175.698V41H160.354Z" fill="#06B6D4"/>
<path d="M48 12L70 6L43 30L62.5 23.2174" stroke="url(#paint0_linear_10_21)" stroke-width="5" stroke-miterlimit="16"/>
<path d="M19.5 30L41.5 22L12 48L38.5 38.5" stroke="url(#paint1_linear_10_21)" stroke-width="5" stroke-miterlimit="16"/>
<defs>
<linearGradient id="paint0_linear_10_21" x1="43" y1="6" x2="51.8117" y2="35.4433" gradientUnits="userSpaceOnUse">
<stop stop-color="#3B82F6"/>
<stop offset="1" stop-color="#2DD4BF"/>
</linearGradient>
<linearGradient id="paint1_linear_10_21" x1="12" y1="22" x2="21.4612" y2="53.9365" gradientUnits="userSpaceOnUse">
<stop stop-color="#3B82F6"/>
<stop offset="1" stop-color="#2DD4BF"/>
</linearGradient>
</defs>
</svg>
