<svg width="286" height="138" viewBox="0 0 286 138" fill="none" xmlns="http://www.w3.org/2000/svg">
<path d="M102 69C102 76.732 95.732 83 88 83C80.268 83 74 76.732 74 69C74 61.268 80.268 55 88 55C95.732 55 102 61.268 102 69Z" fill="url(#paint0_linear_607_78)"/>
<path fill-rule="evenodd" clip-rule="evenodd" d="M88 96C102.912 96 115 83.9117 115 69C115 54.0883 102.912 42 88 42C73.0883 42 61 54.0883 61 69C61 83.9117 73.0883 96 88 96ZM88 89C99.0457 89 108 80.0457 108 69C108 57.9543 99.0457 49 88 49C76.9543 49 68 57.9543 68 69C68 80.0457 76.9543 89 88 89ZM102 69C102 76.732 95.732 83 88 83C80.268 83 74 76.732 74 69C74 61.268 80.268 55 88 55C95.732 55 102 61.268 102 69Z" fill="url(#paint1_linear_607_78)"/>
<path d="M133.758 71.1758H130.223V68.5293H133.758C134.24 68.5293 134.63 68.4479 134.93 68.2852C135.229 68.1224 135.447 67.8978 135.584 67.6113C135.727 67.3184 135.799 66.9896 135.799 66.625C135.799 66.2344 135.727 65.873 135.584 65.541C135.447 65.209 135.229 64.9421 134.93 64.7402C134.63 64.5319 134.24 64.4277 133.758 64.4277H131.512V76H128.084V61.7812H133.758C134.897 61.7812 135.877 61.9896 136.697 62.4062C137.524 62.8229 138.159 63.3958 138.602 64.125C139.044 64.8477 139.266 65.6745 139.266 66.6055C139.266 67.5234 139.044 68.3242 138.602 69.0078C138.159 69.6914 137.524 70.2253 136.697 70.6094C135.877 70.987 134.897 71.1758 133.758 71.1758ZM144.754 61.7812V76H141.336V61.7812H144.754ZM155.252 71.1855H158.67C158.624 72.1751 158.357 73.0475 157.869 73.8027C157.381 74.5579 156.704 75.1471 155.838 75.5703C154.979 75.987 153.963 76.1953 152.791 76.1953C151.84 76.1953 150.991 76.0358 150.242 75.7168C149.5 75.3978 148.868 74.9388 148.348 74.3398C147.833 73.7409 147.439 73.015 147.166 72.1621C146.899 71.3092 146.766 70.349 146.766 69.2812V68.5098C146.766 67.4421 146.906 66.4818 147.186 65.6289C147.472 64.7695 147.876 64.0404 148.396 63.4414C148.924 62.8359 149.555 62.3737 150.291 62.0547C151.027 61.7357 151.844 61.5762 152.742 61.5762C153.979 61.5762 155.024 61.7975 155.877 62.2402C156.73 62.6829 157.391 63.2917 157.859 64.0664C158.328 64.8346 158.605 65.7103 158.689 66.6934H155.271C155.258 66.1595 155.167 65.7135 154.998 65.3555C154.829 64.9909 154.562 64.7174 154.197 64.5352C153.833 64.3529 153.348 64.2617 152.742 64.2617C152.319 64.2617 151.951 64.3398 151.639 64.4961C151.326 64.6523 151.066 64.8997 150.857 65.2383C150.649 65.5768 150.493 66.0163 150.389 66.5566C150.291 67.0905 150.242 67.735 150.242 68.4902V69.2812C150.242 70.0365 150.288 70.681 150.379 71.2148C150.47 71.7487 150.617 72.1849 150.818 72.5234C151.02 72.862 151.281 73.1126 151.6 73.2754C151.925 73.4316 152.322 73.5098 152.791 73.5098C153.312 73.5098 153.751 73.4284 154.109 73.2656C154.467 73.0964 154.744 72.8424 154.939 72.5039C155.135 72.1589 155.239 71.7194 155.252 71.1855ZM163.719 61.7812V76H160.291V61.7812H163.719ZM172.205 61.7812L166.697 68.9883L163.475 72.5137L162.85 69.3691L164.91 66.2441L167.977 61.7812H172.205ZM168.152 76L164.48 69.5938L167.146 67.6309L172.205 76H168.152ZM179.764 61.7812H182.557L185.73 71.6738L188.904 61.7812H191.697L186.863 76H184.598L179.764 61.7812ZM178.064 61.7812H180.955L181.492 72.6797V76H178.064V61.7812ZM190.506 61.7812H193.406V76H189.969V72.6797L190.506 61.7812ZM205.389 73.3633V76H197.811V73.3633H205.389ZM199.031 61.7812V76H195.604V61.7812H199.031ZM204.412 67.4258V69.9746H197.811V67.4258H204.412ZM205.418 61.7812V64.4277H197.811V61.7812H205.418Z" fill="#3B82F6"/>
<defs>
<linearGradient id="paint0_linear_607_78" x1="61" y1="42" x2="82.8323" y2="106.832" gradientUnits="userSpaceOnUse">
<stop offset="0" stop-color="#3B82F6"/>
<stop offset="1" stop-color="#2DD4BF"/>
</linearGradient>
<linearGradient id="paint1_linear_607_78" x1="61" y1="42" x2="82.8323" y2="106.832" gradientUnits="userSpaceOnUse">
<stop offset="0" stop-color="#3B82F6"/>
<stop offset="1" stop-color="#2DD4BF"/>
</linearGradient>
</defs>
</svg>
