<svg width="286" height="138" viewBox="0 0 286 138" fill="none" xmlns="http://www.w3.org/2000/svg">
<rect x="69" y="46" width="147" height="46" stroke="url(#paint0_linear_607_39)" stroke-width="8"/>
<path d="M184.678 76.5066L172 63.8283L174.828 61L184.678 70.9L194.528 61.05L197.357 63.8783L184.678 76.5066Z" fill="#3B82F6"/>
<path fill-rule="evenodd" clip-rule="evenodd" d="M184.678 76.5066L172 63.8283L174.828 61L184.678 70.9L194.528 61.05L197.357 63.8783L184.678 76.5066Z" fill="#3B82F6"/>
<path d="M184.678 76.5066L172 63.8283L174.828 61L184.678 70.9L194.528 61.05L197.357 63.8783L184.678 76.5066Z" fill="#3B82F6"/>
<path d="M96.4082 72.2207C96.4082 71.9993 96.3757 71.8008 96.3105 71.625C96.2454 71.4427 96.125 71.2734 95.9492 71.1172C95.7734 70.9609 95.5195 70.8047 95.1875 70.6484C94.862 70.4857 94.4323 70.3164 93.8984 70.1406C93.2734 69.9323 92.6712 69.6979 92.0918 69.4375C91.5124 69.1706 90.9948 68.8613 90.5391 68.5098C90.0833 68.1517 89.722 67.735 89.4551 67.2598C89.1882 66.778 89.0547 66.2181 89.0547 65.5801C89.0547 64.9681 89.1914 64.418 89.4648 63.9297C89.7383 63.4349 90.1191 63.015 90.6074 62.6699C91.1022 62.3184 91.6816 62.0514 92.3457 61.8691C93.0098 61.6803 93.7357 61.5859 94.5234 61.5859C95.5651 61.5859 96.4831 61.7682 97.2773 62.1328C98.0781 62.4909 98.7031 63.002 99.1523 63.666C99.6081 64.3236 99.8359 65.1016 99.8359 66H96.4277C96.4277 65.6419 96.3529 65.3262 96.2031 65.0527C96.0599 64.7793 95.8418 64.5645 95.5488 64.4082C95.2559 64.252 94.888 64.1738 94.4453 64.1738C94.0156 64.1738 93.6543 64.2389 93.3613 64.3691C93.0684 64.4993 92.847 64.6751 92.6973 64.8965C92.5475 65.1113 92.4727 65.349 92.4727 65.6094C92.4727 65.8242 92.5312 66.0195 92.6484 66.1953C92.7721 66.3646 92.9447 66.5241 93.166 66.6738C93.3939 66.8236 93.6673 66.9668 93.9863 67.1035C94.3118 67.2402 94.6764 67.3737 95.0801 67.5039C95.8353 67.7448 96.5059 68.015 97.0918 68.3145C97.6842 68.6074 98.1823 68.9427 98.5859 69.3203C98.9961 69.6914 99.3053 70.1146 99.5137 70.5898C99.7285 71.0651 99.8359 71.6022 99.8359 72.2012C99.8359 72.8392 99.7122 73.4056 99.4648 73.9004C99.2174 74.3952 98.8626 74.8151 98.4004 75.1602C97.9382 75.4987 97.3848 75.7559 96.7402 75.9316C96.0957 76.1074 95.3763 76.1953 94.582 76.1953C93.8529 76.1953 93.1335 76.1042 92.4238 75.9219C91.7207 75.7331 91.0827 75.4466 90.5098 75.0625C89.9368 74.6719 89.4779 74.1738 89.1328 73.5684C88.7943 72.9564 88.625 72.2305 88.625 71.3906H92.0625C92.0625 71.8073 92.1178 72.1589 92.2285 72.4453C92.3392 72.7318 92.502 72.9629 92.7168 73.1387C92.9316 73.3079 93.1953 73.4316 93.5078 73.5098C93.8203 73.5814 94.1784 73.6172 94.582 73.6172C95.0182 73.6172 95.3698 73.5553 95.6367 73.4316C95.9036 73.3014 96.099 73.1322 96.2227 72.9238C96.3464 72.709 96.4082 72.4746 96.4082 72.2207ZM111.389 73.3633V76H103.811V73.3633H111.389ZM105.031 61.7812V76H101.604V61.7812H105.031ZM110.412 67.4258V69.9746H103.811V67.4258H110.412ZM111.418 61.7812V64.4277H103.811V61.7812H111.418ZM122.189 73.3633V76H115.002V73.3633H122.189ZM116.223 61.7812V76H112.795V61.7812H116.223ZM133.42 73.3633V76H125.842V73.3633H133.42ZM127.062 61.7812V76H123.635V61.7812H127.062ZM132.443 67.4258V69.9746H125.842V67.4258H132.443ZM133.449 61.7812V64.4277H125.842V61.7812H133.449ZM142.912 71.1855H146.33C146.285 72.1751 146.018 73.0475 145.529 73.8027C145.041 74.5579 144.364 75.1471 143.498 75.5703C142.639 75.987 141.623 76.1953 140.451 76.1953C139.501 76.1953 138.651 76.0358 137.902 75.7168C137.16 75.3978 136.529 74.9388 136.008 74.3398C135.493 73.7409 135.1 73.015 134.826 72.1621C134.559 71.3092 134.426 70.349 134.426 69.2812V68.5098C134.426 67.4421 134.566 66.4818 134.846 65.6289C135.132 64.7695 135.536 64.0404 136.057 63.4414C136.584 62.8359 137.215 62.3737 137.951 62.0547C138.687 61.7357 139.504 61.5762 140.402 61.5762C141.639 61.5762 142.684 61.7975 143.537 62.2402C144.39 62.6829 145.051 63.2917 145.52 64.0664C145.988 64.8346 146.265 65.7103 146.35 66.6934H142.932C142.919 66.1595 142.827 65.7135 142.658 65.3555C142.489 64.9909 142.222 64.7174 141.857 64.5352C141.493 64.3529 141.008 64.2617 140.402 64.2617C139.979 64.2617 139.611 64.3398 139.299 64.4961C138.986 64.6523 138.726 64.8997 138.518 65.2383C138.309 65.5768 138.153 66.0163 138.049 66.5566C137.951 67.0905 137.902 67.735 137.902 68.4902V69.2812C137.902 70.0365 137.948 70.681 138.039 71.2148C138.13 71.7487 138.277 72.1849 138.479 72.5234C138.68 72.862 138.941 73.1126 139.26 73.2754C139.585 73.4316 139.982 73.5098 140.451 73.5098C140.972 73.5098 141.411 73.4284 141.77 73.2656C142.128 73.0964 142.404 72.8424 142.6 72.5039C142.795 72.1589 142.899 71.7194 142.912 71.1855ZM154.543 61.7812V76H151.115V61.7812H154.543ZM158.82 61.7812V64.4277H146.936V61.7812H158.82Z" fill="#3B82F6"/>
<defs>
<linearGradient id="paint0_linear_607_39" x1="69" y1="46" x2="75.4108" y2="106.819" gradientUnits="userSpaceOnUse">
<stop offset="0" stop-color="#3B82F6"/>
<stop offset="1" stop-color="#2DD4BF"/>
</linearGradient>
</defs>
</svg>
