<svg width="286" height="138" viewBox="0 0 286 138" fill="none" xmlns="http://www.w3.org/2000/svg">
<rect x="126" y="66" width="117" height="6" fill="#D9D9D9"/>
<path d="M43 64H107V74H43V64Z" fill="url(#paint0_linear_607_91)"/>
<path fill-rule="evenodd" clip-rule="evenodd" d="M117 81C123.627 81 129 75.6274 129 69C129 62.3726 123.627 57 117 57C110.373 57 105 62.3726 105 69C105 75.6274 110.373 81 117 81ZM117 76C120.866 76 124 72.866 124 69C124 65.134 120.866 62 117 62C113.134 62 110 65.134 110 69C110 72.866 113.134 76 117 76Z" fill="url(#paint1_linear_607_91)"/>
<defs>
<linearGradient id="paint0_linear_607_91" x1="43" y1="57" x2="45.985" y2="88.794" gradientUnits="userSpaceOnUse">
<stop offset="0" stop-color="#3B82F6"/>
<stop offset="1" stop-color="#2DD4BF"/>
</linearGradient>
<linearGradient id="paint1_linear_607_91" x1="43" y1="57" x2="45.985" y2="88.794" gradientUnits="userSpaceOnUse">
<stop offset="0" stop-color="#3B82F6"/>
<stop offset="1" stop-color="#2DD4BF"/>
</linearGradient>
</defs>
</svg>
