<svg width="286" height="138" viewBox="0 0 286 138" fill="none" xmlns="http://www.w3.org/2000/svg">
<path d="M33 38H252V43H33V38Z" fill="url(#paint0_linear_28_34)"/>
<path d="M33 57H252V62H33V57Z" fill="url(#paint1_linear_28_34)"/>
<path d="M33 76H252V81H33V76Z" fill="url(#paint2_linear_28_34)"/>
<path d="M33 95H252V100H33V95Z" fill="url(#paint3_linear_28_34)"/>
<path d="M33 114H252V119H33V114Z" fill="url(#paint4_linear_28_34)"/>
<path d="M33 19H37V119H33V19Z" fill="url(#paint5_linear_28_34)"/>
<path d="M248 19H252V119H248V19Z" fill="url(#paint6_linear_28_34)"/>
<path d="M216 38H220V119H216V38Z" fill="url(#paint7_linear_28_34)"/>
<path d="M111 38H115V119H111V38Z" fill="url(#paint8_linear_28_34)"/>
<path d="M33 19H252V24H33V19Z" fill="url(#paint9_linear_28_34)"/>
<path d="M89 30H159V33H89V30Z" fill="url(#paint10_linear_28_34)"/>
<path d="M163 30H196V33H163V30Z" fill="url(#paint11_linear_28_34)"/>
<path d="M120 106H158V109H120V106Z" fill="url(#paint12_linear_28_34)"/>
<path d="M162.119 106H180.119V109H162.119V106Z" fill="url(#paint13_linear_28_34)"/>
<path d="M41 49H53V52H41V49Z" fill="url(#paint14_linear_28_34)"/>
<path d="M57 49H83V52H57V49Z" fill="url(#paint15_linear_28_34)"/>
<path d="M120 49H132V52H120V49Z" fill="url(#paint16_linear_28_34)"/>
<path d="M120 68H141V71H120V68Z" fill="url(#paint17_linear_28_34)"/>
<path d="M136 49H162V52H136V49Z" fill="url(#paint18_linear_28_34)"/>
<path d="M120 87H198V90H120V87Z" fill="url(#paint19_linear_28_34)"/>
<path d="M222 49H225V52H222V49Z" fill="url(#paint20_linear_28_34)"/>
<path d="M228 49H231V52H228V49Z" fill="url(#paint21_linear_28_34)"/>
<path d="M234 49H237V52H234V49Z" fill="url(#paint22_linear_28_34)"/>
<path d="M222 68H225V71H222V68Z" fill="url(#paint23_linear_28_34)"/>
<path d="M228 68H231V71H228V68Z" fill="url(#paint24_linear_28_34)"/>
<path d="M222 87H225V90H222V87Z" fill="url(#paint25_linear_28_34)"/>
<path d="M228 87H231V90H228V87Z" fill="url(#paint26_linear_28_34)"/>
<path d="M234 87H237V90H234V87Z" fill="url(#paint27_linear_28_34)"/>
<path d="M222 106H225V109H222V106Z" fill="url(#paint28_linear_28_34)"/>
<path d="M41 68H72V71H41V68Z" fill="url(#paint29_linear_28_34)"/>
<path d="M41 87H67V90H41V87Z" fill="url(#paint30_linear_28_34)"/>
<path d="M41 106H47V109H41V106Z" fill="url(#paint31_linear_28_34)"/>
<path d="M51 106H59V109H51V106Z" fill="url(#paint32_linear_28_34)"/>
<path d="M63 106H80V109H63V106Z" fill="url(#paint33_linear_28_34)"/>
<path d="M71 87H97V90H71V87Z" fill="url(#paint34_linear_28_34)"/>
<defs>
<linearGradient id="paint0_linear_28_34" x1="33" y1="19" x2="53.0619" y2="149.567" gradientUnits="userSpaceOnUse">
<stop stop-color="#3B82F6"/>
<stop offset="1" stop-color="#2DD4BF"/>
</linearGradient>
<linearGradient id="paint1_linear_28_34" x1="33" y1="19" x2="53.0619" y2="149.567" gradientUnits="userSpaceOnUse">
<stop stop-color="#3B82F6"/>
<stop offset="1" stop-color="#2DD4BF"/>
</linearGradient>
<linearGradient id="paint2_linear_28_34" x1="33" y1="19" x2="53.0619" y2="149.567" gradientUnits="userSpaceOnUse">
<stop stop-color="#3B82F6"/>
<stop offset="1" stop-color="#2DD4BF"/>
</linearGradient>
<linearGradient id="paint3_linear_28_34" x1="33" y1="19" x2="53.0619" y2="149.567" gradientUnits="userSpaceOnUse">
<stop stop-color="#3B82F6"/>
<stop offset="1" stop-color="#2DD4BF"/>
</linearGradient>
<linearGradient id="paint4_linear_28_34" x1="33" y1="19" x2="53.0619" y2="149.567" gradientUnits="userSpaceOnUse">
<stop stop-color="#3B82F6"/>
<stop offset="1" stop-color="#2DD4BF"/>
</linearGradient>
<linearGradient id="paint5_linear_28_34" x1="33" y1="19" x2="53.0619" y2="149.567" gradientUnits="userSpaceOnUse">
<stop stop-color="#3B82F6"/>
<stop offset="1" stop-color="#2DD4BF"/>
</linearGradient>
<linearGradient id="paint6_linear_28_34" x1="33" y1="19" x2="53.0619" y2="149.567" gradientUnits="userSpaceOnUse">
<stop stop-color="#3B82F6"/>
<stop offset="1" stop-color="#2DD4BF"/>
</linearGradient>
<linearGradient id="paint7_linear_28_34" x1="33" y1="19" x2="53.0619" y2="149.567" gradientUnits="userSpaceOnUse">
<stop stop-color="#3B82F6"/>
<stop offset="1" stop-color="#2DD4BF"/>
</linearGradient>
<linearGradient id="paint8_linear_28_34" x1="33" y1="19" x2="53.0619" y2="149.567" gradientUnits="userSpaceOnUse">
<stop stop-color="#3B82F6"/>
<stop offset="1" stop-color="#2DD4BF"/>
</linearGradient>
<linearGradient id="paint9_linear_28_34" x1="33" y1="19" x2="53.0619" y2="149.567" gradientUnits="userSpaceOnUse">
<stop stop-color="#3B82F6"/>
<stop offset="1" stop-color="#2DD4BF"/>
</linearGradient>
<linearGradient id="paint10_linear_28_34" x1="33" y1="19" x2="53.0619" y2="149.567" gradientUnits="userSpaceOnUse">
<stop stop-color="#3B82F6"/>
<stop offset="1" stop-color="#2DD4BF"/>
</linearGradient>
<linearGradient id="paint11_linear_28_34" x1="33" y1="19" x2="53.0619" y2="149.567" gradientUnits="userSpaceOnUse">
<stop stop-color="#3B82F6"/>
<stop offset="1" stop-color="#2DD4BF"/>
</linearGradient>
<linearGradient id="paint12_linear_28_34" x1="33" y1="19" x2="53.0619" y2="149.567" gradientUnits="userSpaceOnUse">
<stop stop-color="#3B82F6"/>
<stop offset="1" stop-color="#2DD4BF"/>
</linearGradient>
<linearGradient id="paint13_linear_28_34" x1="33" y1="19" x2="53.0619" y2="149.567" gradientUnits="userSpaceOnUse">
<stop stop-color="#3B82F6"/>
<stop offset="1" stop-color="#2DD4BF"/>
</linearGradient>
<linearGradient id="paint14_linear_28_34" x1="33" y1="19" x2="53.0619" y2="149.567" gradientUnits="userSpaceOnUse">
<stop stop-color="#3B82F6"/>
<stop offset="1" stop-color="#2DD4BF"/>
</linearGradient>
<linearGradient id="paint15_linear_28_34" x1="33" y1="19" x2="53.0619" y2="149.567" gradientUnits="userSpaceOnUse">
<stop stop-color="#3B82F6"/>
<stop offset="1" stop-color="#2DD4BF"/>
</linearGradient>
<linearGradient id="paint16_linear_28_34" x1="33" y1="19" x2="53.0619" y2="149.567" gradientUnits="userSpaceOnUse">
<stop stop-color="#3B82F6"/>
<stop offset="1" stop-color="#2DD4BF"/>
</linearGradient>
<linearGradient id="paint17_linear_28_34" x1="33" y1="19" x2="53.0619" y2="149.567" gradientUnits="userSpaceOnUse">
<stop stop-color="#3B82F6"/>
<stop offset="1" stop-color="#2DD4BF"/>
</linearGradient>
<linearGradient id="paint18_linear_28_34" x1="33" y1="19" x2="53.0619" y2="149.567" gradientUnits="userSpaceOnUse">
<stop stop-color="#3B82F6"/>
<stop offset="1" stop-color="#2DD4BF"/>
</linearGradient>
<linearGradient id="paint19_linear_28_34" x1="33" y1="19" x2="53.0619" y2="149.567" gradientUnits="userSpaceOnUse">
<stop stop-color="#3B82F6"/>
<stop offset="1" stop-color="#2DD4BF"/>
</linearGradient>
<linearGradient id="paint20_linear_28_34" x1="33" y1="19" x2="53.0619" y2="149.567" gradientUnits="userSpaceOnUse">
<stop stop-color="#3B82F6"/>
<stop offset="1" stop-color="#2DD4BF"/>
</linearGradient>
<linearGradient id="paint21_linear_28_34" x1="33" y1="19" x2="53.0619" y2="149.567" gradientUnits="userSpaceOnUse">
<stop stop-color="#3B82F6"/>
<stop offset="1" stop-color="#2DD4BF"/>
</linearGradient>
<linearGradient id="paint22_linear_28_34" x1="33" y1="19" x2="53.0619" y2="149.567" gradientUnits="userSpaceOnUse">
<stop stop-color="#3B82F6"/>
<stop offset="1" stop-color="#2DD4BF"/>
</linearGradient>
<linearGradient id="paint23_linear_28_34" x1="33" y1="19" x2="53.0619" y2="149.567" gradientUnits="userSpaceOnUse">
<stop stop-color="#3B82F6"/>
<stop offset="1" stop-color="#2DD4BF"/>
</linearGradient>
<linearGradient id="paint24_linear_28_34" x1="33" y1="19" x2="53.0619" y2="149.567" gradientUnits="userSpaceOnUse">
<stop stop-color="#3B82F6"/>
<stop offset="1" stop-color="#2DD4BF"/>
</linearGradient>
<linearGradient id="paint25_linear_28_34" x1="33" y1="19" x2="53.0619" y2="149.567" gradientUnits="userSpaceOnUse">
<stop stop-color="#3B82F6"/>
<stop offset="1" stop-color="#2DD4BF"/>
</linearGradient>
<linearGradient id="paint26_linear_28_34" x1="33" y1="19" x2="53.0619" y2="149.567" gradientUnits="userSpaceOnUse">
<stop stop-color="#3B82F6"/>
<stop offset="1" stop-color="#2DD4BF"/>
</linearGradient>
<linearGradient id="paint27_linear_28_34" x1="33" y1="19" x2="53.0619" y2="149.567" gradientUnits="userSpaceOnUse">
<stop stop-color="#3B82F6"/>
<stop offset="1" stop-color="#2DD4BF"/>
</linearGradient>
<linearGradient id="paint28_linear_28_34" x1="33" y1="19" x2="53.0619" y2="149.567" gradientUnits="userSpaceOnUse">
<stop stop-color="#3B82F6"/>
<stop offset="1" stop-color="#2DD4BF"/>
</linearGradient>
<linearGradient id="paint29_linear_28_34" x1="33" y1="19" x2="53.0619" y2="149.567" gradientUnits="userSpaceOnUse">
<stop stop-color="#3B82F6"/>
<stop offset="1" stop-color="#2DD4BF"/>
</linearGradient>
<linearGradient id="paint30_linear_28_34" x1="33" y1="19" x2="53.0619" y2="149.567" gradientUnits="userSpaceOnUse">
<stop stop-color="#3B82F6"/>
<stop offset="1" stop-color="#2DD4BF"/>
</linearGradient>
<linearGradient id="paint31_linear_28_34" x1="33" y1="19" x2="53.0619" y2="149.567" gradientUnits="userSpaceOnUse">
<stop stop-color="#3B82F6"/>
<stop offset="1" stop-color="#2DD4BF"/>
</linearGradient>
<linearGradient id="paint32_linear_28_34" x1="33" y1="19" x2="53.0619" y2="149.567" gradientUnits="userSpaceOnUse">
<stop stop-color="#3B82F6"/>
<stop offset="1" stop-color="#2DD4BF"/>
</linearGradient>
<linearGradient id="paint33_linear_28_34" x1="33" y1="19" x2="53.0619" y2="149.567" gradientUnits="userSpaceOnUse">
<stop stop-color="#3B82F6"/>
<stop offset="1" stop-color="#2DD4BF"/>
</linearGradient>
<linearGradient id="paint34_linear_28_34" x1="33" y1="19" x2="53.0619" y2="149.567" gradientUnits="userSpaceOnUse">
<stop stop-color="#3B82F6"/>
<stop offset="1" stop-color="#2DD4BF"/>
</linearGradient>
</defs>
</svg>
